<?xml version="1.0" encoding="utf-8"?>
<!-- Generator: Adobe Illustrator 22.0.1, SVG Export Plug-In . SVG Version: 6.00 Build 0)  -->
<svg version="1.1" id="Calque_1" xmlns="http://www.w3.org/2000/svg" xmlns:xlink="http://www.w3.org/1999/xlink" x="0px" y="0px"
	 viewBox="0 0 592 608" style="enable-background:new 0 0 592 608;" xml:space="preserve">
<g>
	<path d="M312.2,371.6c3.9,22.1,2.8,45.2-3.1,66.6c-5.8,21.5-16.5,41.4-30.6,58c-14.1,16.7-31.9,30-51.6,39
		c-9.8,4.5-20.1,7.8-30.5,10c-2.6,0.5-5.1,1.1-8,1.4c-1.4,0.2-2.8,0.4-4.1,0.6l-4.2,0.4c-1.4,0.2-2.8,0.2-4.2,0.3
		c-1.4,0.1-2.8,0.2-4.2,0.1c-2.8,0-5.6,0-8.4-0.2c-11.1-0.6-22.1-2.8-32.5-6.3c-5.2-1.8-10.3-3.9-15.2-6.4
		c-4.9-2.5-9.6-5.2-14.1-8.4c-17.9-12.3-32.2-29.6-40.9-49.1c-1-2.5-2.1-4.9-3-7.4c-0.9-2.5-1.7-5-2.5-7.6c-0.4-1.3-0.7-2.6-1-3.8
		c-0.3-1.3-0.7-2.6-0.9-3.9c-0.5-2.6-1.1-5.1-1.4-7.9c-0.8-5.5-1.1-11-0.9-16.5c0.2-5.5,0.8-11,1.9-16.4c1.1-5.4,2.7-10.6,4.6-15.7
		c2-5.1,4.4-9.9,7.2-14.5c5.6-9.2,12.7-17.5,21-24.2c8.3-6.7,17.7-12.1,27.7-15.5c5-1.7,10.1-3.1,15.2-4c5.4-0.9,10.9-1.3,16.3-1
		c10.9,0.5,21.6,3.3,31.1,8.2c9.5,4.9,17.9,11.8,24.5,20c6.6,8.3,11.2,17.9,13.7,28c0.3,1.3,0.6,2.5,0.8,3.8
		c0.3,1.2,0.4,2.6,0.6,3.9c0.1,1.3,0.4,2.7,0.4,4l0.1,4c0.1,1.3-0.1,2.7-0.2,4c-0.1,1.3-0.2,2.7-0.4,4c-0.5,2.6-0.9,5.3-1.7,7.8
		c-2.8,10.3-8.6,19.5-16,26.7l-2.9,2.6c-0.5,0.4-1,0.9-1.5,1.2l-1.6,1.1c-1.1,0.7-2.1,1.5-3.2,2.2l-3.4,1.9
		c-1.1,0.7-2.3,1.2-3.5,1.7l-1.8,0.8c-0.6,0.3-1.2,0.5-1.8,0.7c-2.4,0.8-4.8,1.7-7.4,2.2l-1.9,0.4c-0.6,0.1-1.2,0.3-1.9,0.4
		l-3.9,0.5c-2.6,0.1-5.3,0.2-7.9-0.1c-5.2-0.5-10.3-1.9-15.1-4c-9.4-4.3-17.1-11.8-21.8-20.8c-2.3-4.6-3.7-9.3-4.4-14.4
		c-0.7-5.1-0.3-10.3,1.2-15.2c1.4-4.9,3.9-9.4,7.1-13.2c3.2-3.8,7.3-6.9,11.7-9c2.2-1,4.5-1.9,6.9-2.4c1.2-0.3,2.4-0.6,3.6-0.7
		c0.6-0.1,1.2-0.2,1.9-0.2l1.9,0c0.6,0,1.2,0,1.9,0.1c0.6,0.1,1.2,0.1,1.9,0.2c1.2,0.2,2.5,0.4,3.6,0.8c2.4,0.6,4.6,1.7,6.8,2.8
		c4.2,2.5,7.7,6,10,10.2c2.4,4.2,3.6,8.8,3.5,13.7c-0.2,4.8-2.1,9.4-5.1,12.9c-3,3.5-7.1,6.1-11.6,6.9c-4.4,1-9.2,0.1-12.9-2.4
		c-3.7-2.4-6.2-6.4-6.9-10.6c1,4.1,3.9,7.7,7.5,9.6c3.6,2,7.9,2.3,11.7,1.1c3.8-1.2,7.1-3.7,9.4-6.8c2.2-3.2,3.3-7,3.1-10.8
		c-0.2-3.7-1.6-7.4-3.8-10.5c-2.1-3.1-5.1-5.5-8.4-7.1c-1.7-0.7-3.4-1.4-5.2-1.6c-0.9-0.2-1.8-0.2-2.7-0.3c-0.4,0-0.9,0-1.3,0
		c-0.4,0-0.9,0-1.3,0.1c-3.5,0.3-7,1.6-10.1,3.4c-3.1,1.8-5.8,4.3-7.8,7.2c-2,2.9-3.4,6.2-4,9.5c-0.7,3.4-0.6,6.8,0.2,10.1
		c0.8,3.3,2.2,6.7,4,9.6c3.8,5.8,9.4,10.2,15.7,12.4c3.2,1.1,6.5,1.6,9.7,1.6c1.6,0,3.2-0.2,4.8-0.4l2.4-0.5
		c0.8-0.2,1.6-0.5,2.4-0.8c6.5-2,12.2-6.1,16.6-11c4.2-5.1,7.3-11.1,8.3-17.4c0.4-1.6,0.4-3.2,0.6-4.7c0.1-0.8,0-1.6,0-2.4
		c0-0.8,0-1.6-0.1-2.4l-0.3-2.3c-0.1-0.8-0.3-1.5-0.5-2.3c-0.2-0.8-0.3-1.5-0.6-2.3c-0.2-0.8-0.5-1.6-0.8-2.4
		c-2.2-6.3-5.7-12-10.2-16.6c-4.5-4.7-10-8.3-15.9-10.6c-5.9-2.3-12.2-3.3-18.3-2.9c-3.1,0.2-6.1,0.7-9,1.5c-3.2,0.9-6.2,2-9.2,3.4
		c-5.9,2.7-11.2,6.5-15.7,10.9c-4.5,4.5-8.2,9.7-10.9,15.3c-1.3,2.8-2.4,5.7-3.3,8.7c-0.8,3-1.4,6-1.7,9c-0.3,3-0.4,6-0.2,9
		c0.2,3,0.7,6,1.4,8.9c0.3,1.4,0.8,3,1.3,4.5c0.2,0.8,0.5,1.5,0.8,2.3c0.3,0.8,0.5,1.5,0.8,2.3c0.6,1.5,1.2,3,1.9,4.4
		c0.6,1.5,1.5,2.8,2.2,4.2c6.3,11,15.5,20,26.3,26c10.8,6,23,8.7,34.7,8.1c1.5,0,2.9-0.2,4.4-0.3c0.7-0.1,1.5-0.2,2.2-0.3
		c0.7-0.1,1.5-0.2,2.2-0.4l2.2-0.4c0.7-0.1,1.4-0.4,2.1-0.5c1.4-0.3,3-0.9,4.5-1.3c6.1-1.9,11.9-4.4,17.3-7.6
		c10.8-6.3,20-14.9,27-25c6.9-10.1,11.6-21.5,13.4-33.2c1.9-11.7,1.2-23.5-1.9-34.6L312.2,371.6z"/>
</g>
<g>
	<path d="M213.3,306.6c-8-27.5-9.8-56.8-5.4-85c2.2-14.1,6-27.9,11.2-41c5.2-13.2,11.8-25.8,19.7-37.5
		c15.8-23.4,36.7-43.2,60.8-57.5c12-7.2,24.9-13,38.1-17.3c3.3-1,6.6-2.2,10.1-3c1.7-0.4,3.4-0.9,5.2-1.3l5.2-1.1
		c1.7-0.4,3.5-0.6,5.3-0.9c1.8-0.3,3.5-0.6,5.3-0.8c3.5-0.4,7.1-0.8,10.7-0.9c14.2-0.9,28.5,0.4,42.4,3.5c6.9,1.6,13.7,3.6,20.3,6
		c1.7,0.6,3.3,1.3,4.9,2l2.4,1l2.4,1.1c1.6,0.7,3.2,1.5,4.8,2.2l4.7,2.4c24.8,13.3,45.7,33.5,59.8,57.6c1.7,3.1,3.5,6.1,4.9,9.2
		c0.8,1.6,1.6,3.1,2.3,4.7l2.1,4.8c0.7,1.6,1.3,3.2,1.9,4.9c0.6,1.6,1.3,3.2,1.8,4.9l1.6,5l0.4,1.2l0.3,1.3l0.7,2.6
		c1.8,6.9,2.9,13.9,3.5,21c0.5,7.1,0.5,14.2-0.2,21.2c-0.7,7-1.9,14-3.7,20.8c-1.9,6.8-4.3,13.4-7.2,19.8
		c-5.9,12.7-13.9,24.4-23.7,34.3c-9.8,9.9-21.2,18.2-33.7,24.2c-6.2,3-12.7,5.5-19.3,7.4c-6.8,1.9-13.8,3.2-20.8,3.6
		c-14.1,0.9-28.3-1.2-41.3-6.1c-13-5-24.9-12.7-34.7-22.5c-9.8-9.8-17.3-21.8-22-34.6c-0.6-1.6-1.1-3.2-1.6-4.9
		c-0.5-1.6-1-3.3-1.4-5c-0.8-3.4-1.4-6.8-1.8-10.3c-0.8-7-0.5-14,0.6-20.8c2.3-13.7,8.3-26.7,17.1-37.2c8.8-10.5,20.5-18.6,33.4-23
		c0.8-0.3,1.6-0.5,2.4-0.8c0.8-0.3,1.6-0.5,2.5-0.7l5.1-1.2c1.7-0.3,3.4-0.5,5.1-0.7l1.3-0.2l1.3,0l2.6-0.1c6.9-0.1,13.8,0.9,20.3,3
		c13,4.3,24.4,13.1,31.9,24.3c3.7,5.7,6.4,11.9,8.1,18.5c1.6,6.6,1.9,13.6,0.7,20.3c-1.2,6.7-3.8,13.1-7.5,18.6
		c-3.7,5.6-8.7,10.3-14.4,13.8l-2.2,1.3c-0.4,0.2-0.7,0.4-1.1,0.6l-1.1,0.5c-1.5,0.7-3,1.5-4.6,1.9c-1.6,0.5-3.1,1.1-4.8,1.5
		c-0.8,0.2-1.6,0.4-2.5,0.5l-2.5,0.3c-0.8,0.1-1.7,0.2-2.5,0.2c-0.8,0-1.7,0.1-2.5,0.1l-2.5-0.2c-0.4,0-0.8,0-1.2-0.1l-1.2-0.2
		c-3.3-0.4-6.5-1.5-9.6-2.8c-12.2-5.4-21.1-17.3-22.1-30.4c-0.4-6.6,1.4-13.2,5-18.6c3.6-5.4,8.9-9.6,15-11.5c3-1.1,6.3-1.5,9.4-1.3
		c3.2,0.2,6.3,1.1,9.1,2.5c5.6,2.9,9.9,8.1,11.6,14.1c-1.9-5.9-6.4-10.8-12-13.3c-5.5-2.6-12-2.7-17.6-0.4
		c-5.6,2.1-10.4,6.3-13.5,11.3c-3.1,5.1-4.4,11.1-3.7,16.9c0.7,5.8,3.2,11.4,6.9,15.9c3.6,4.6,8.5,8,13.8,10.2c2.7,1,5.5,1.8,8.3,2
		l1.1,0.1c0.4,0,0.7,0,1.1,0l2.1,0.1c0.7,0,1.4-0.1,2.1-0.1c0.7,0,1.4-0.1,2.1-0.2l2.1-0.4c0.7-0.1,1.4-0.4,2.1-0.6
		c1.4-0.3,2.7-0.9,4-1.4c1.4-0.5,2.6-1.2,3.9-1.9l1-0.5c0.3-0.2,0.6-0.4,0.9-0.6l1.8-1.2c4.7-3.2,8.7-7.4,11.7-12.3
		c2.9-4.9,4.9-10.3,5.6-15.8c0.7-5.6,0.3-11.2-1.3-16.6c-1.7-5.4-4.2-10.6-7.5-15.1c-6.7-9.1-16.3-15.8-27-18.8
		c-5.3-1.5-10.9-2-16.4-1.7l-2.1,0.2l-1,0.1l-1,0.2c-1.3,0.3-2.7,0.5-4,0.7l-3.9,1.1c-0.7,0.2-1.3,0.4-2,0.7c-0.7,0.2-1.3,0.5-2,0.7
		c-10.4,4.2-19.5,11.1-26.2,19.9c-6.7,8.8-11,19.3-12.3,30.1c-0.6,5.4-0.6,10.9,0.3,16.2c0.4,2.7,1,5.3,1.7,7.9
		c0.4,1.3,0.8,2.6,1.3,3.9c0.5,1.3,0.9,2.6,1.5,3.9c4.3,10.2,10.7,19.4,18.8,26.8c8.1,7.4,17.7,13,28,16.4
		c10.3,3.4,21.2,4.5,31.9,3.3c5.3-0.6,10.6-1.8,15.6-3.5c5.2-1.8,10.3-4,15.1-6.6c9.7-5.2,18.3-12.1,25.5-20.1
		c7.3-8.1,13.1-17.4,17.1-27.4c2-5,3.7-10.1,4.8-15.3c1.1-5.2,1.8-10.5,2.1-15.9c0.2-5.3,0-10.6-0.6-15.9
		c-0.7-5.3-1.8-10.4-3.4-15.5l-0.6-1.9l-0.3-0.9l-0.4-1l-1.4-3.9c-0.4-1.3-1.1-2.5-1.6-3.8c-0.6-1.2-1-2.5-1.7-3.7l-1.8-3.7
		c-0.6-1.2-1.3-2.4-1.9-3.6c-1.3-2.4-2.8-4.7-4.2-7c-11.8-18.2-28.6-32.9-48-42.1l-3.6-1.7c-1.2-0.5-2.5-1-3.7-1.5l-1.9-0.8
		l-1.9-0.7c-1.3-0.4-2.5-0.9-3.8-1.3c-5.1-1.6-10.3-2.9-15.5-3.8c-10.5-1.8-21.1-2.3-31.6-1.1c-2.6,0.2-5.2,0.7-7.8,1
		c-1.3,0.2-2.6,0.5-3.9,0.8c-1.3,0.3-2.6,0.5-3.8,0.9l-3.8,1c-1.3,0.3-2.5,0.8-3.8,1.2c-2.5,0.7-5.1,1.8-7.6,2.7
		c-10.2,3.9-19.9,8.8-28.9,14.7c-18,11.9-33.2,27.7-44.3,46c-5.5,9.1-10.1,18.8-13.5,28.9c-3.5,10-5.8,20.4-6.9,30.9
		c-2.3,21,0.1,42.2,6.8,62L213.3,306.6z"/>
</g>
</svg>
